HIERARCHY
ROOT Hips
{
	OFFSET -0.001795 -0.223333 0.028219
	CHANNELS 6 Xposition Yposition Zposition Zrotation Yrotation Xrotation 
	JOINT LeftUpLeg
	{
		OFFSET 0.069520 -0.091406 -0.006815
		CHANNELS 3 Zrotation Yrotation Xrotation
		JOINT LeftLeg
		{
			OFFSET 0.034277 -0.375199 -0.004496
			CHANNELS 3 Zrotation Yrotation Xrotation
			JOINT LeftFoot
			{
				OFFSET -0.013596 -0.397961 -0.043693
				CHANNELS 3 Zrotation Yrotation Xrotation
				JOINT LeftToe
				{
					OFFSET 0.026358 -0.055791 0.119288
					CHANNELS 3 Zrotation Yrotation Xrotation
					End Site
					{
						OFFSET 0.000000 0.000000 0.000000
					}
				}
			}
		}
	}
	JOINT RightUpLeg
	{
		OFFSET -0.067670 -0.090522 -0.004320
		CHANNELS 3 Zrotation Yrotation Xrotation
		JOINT RightLeg
		{
			OFFSET -0.038290 -0.382569 -0.008850
			CHANNELS 3 Zrotation Yrotation Xrotation
			JOINT RightFoot
			{
				OFFSET 0.015774 -0.398415 -0.042312
				CHANNELS 3 Zrotation Yrotation Xrotation
				JOINT RightToe
				{
					OFFSET -0.025372 -0.048144 0.123348
					CHANNELS 3 Zrotation Yrotation Xrotation
					End Site
					{
						OFFSET 0.000000 0.000000 0.000000
					}
				}
			}
		}
	}
	JOINT Spine
	{
		OFFSET -0.002533 0.108963 -0.026696
		CHANNELS 3 Zrotation Yrotation Xrotation
		JOINT Spine1
		{
			OFFSET 0.005487 0.135180 0.001092
			CHANNELS 3 Zrotation Yrotation Xrotation
			JOINT Spine2
			{
				OFFSET 0.001457 0.052922 0.025425
				CHANNELS 3 Zrotation Yrotation Xrotation
				JOINT Neck
				{
					OFFSET -0.002778 0.213870 -0.042857
					CHANNELS 3 Zrotation Yrotation Xrotation
					JOINT Head
					{
						OFFSET 0.005152 0.064970 0.051349
						CHANNELS 3 Zrotation Yrotation Xrotation
						End Site
						{
							OFFSET 0.000000 0.000000 0.000000
						}
					}
				}
				JOINT LeftShoulder
				{
					OFFSET 0.078845 0.121749 -0.034090
					CHANNELS 3 Zrotation Yrotation Xrotation
					JOINT LeftArm
					{
						OFFSET 0.090977 0.030469 -0.008868
						CHANNELS 3 Zrotation Yrotation Xrotation
						JOINT LeftForeArm
						{
							OFFSET 0.259612 -0.012772 -0.027456
							CHANNELS 3 Zrotation Yrotation Xrotation
							JOINT LeftHand
							{
								OFFSET 0.249234 0.008986 -0.001171
								CHANNELS 3 Zrotation Yrotation Xrotation
								End Site
								{
									OFFSET 0.000000 0.000000 0.000000
								}
							}
						}
					}
				}
				JOINT RightShoulder
				{
					OFFSET -0.081759 0.118833 -0.038615
					CHANNELS 3 Zrotation Yrotation Xrotation
					JOINT RightArm
					{
						OFFSET -0.096012 0.032551 -0.009143
						CHANNELS 3 Zrotation Yrotation Xrotation
						JOINT RightForeArm
						{
							OFFSET -0.253742 -0.013329 -0.021401
							CHANNELS 3 Zrotation Yrotation Xrotation
							JOINT RightHand
							{
								OFFSET -0.255298 0.007772 -0.005559
								CHANNELS 3 Zrotation Yrotation Xrotation
								End Site
								{
									OFFSET 0.000000 0.000000 0.000000
								}
							}
						}
					}
				}
			}
		}
	}
}
MOTION
Frames: 9
Frame Time: 0.050000
0.000000 0.951704 0.000000 -2.023051 8.870595 2.502496 3.930762 -0.308515 -3.175884 -1.250409 0.229287 -6.023708 4.792799 13.817782 15.334810 0.000000 0.000000 0.000000 0.636656 0.931556 -9.135860 0.960304 0.016417 6.677796 0.765974 -1.129808 8.477118 0.000000 0.000000 0.000000 2.273332 -1.259668 16.352312 -7.476445 2.576507 -22.690345 -5.518901 -1.219894 27.233754 6.329768 -1.738900 -24.048977 0.000000 0.000000 0.000000 -19.166059 -20.171789 8.698913 -47.022333 -26.197659 2.577535 10.312745 -19.200931 -0.906859 0.000000 0.000000 0.000000 25.330562 3.735409 2.390456 56.659365 13.496973 -2.000529 16.459274 39.977840 8.637700 0.000000 0.000000 0.000000 
0.003193 0.950769 0.002312 -1.718810 7.872228 2.767381 3.705936 -0.268809 -2.612543 -1.807438 0.264900 -6.863658 5.314671 14.453241 15.397938 0.000000 0.000000 0.000000 -0.403401 0.815660 -8.561219 1.840920 -0.144658 5.460976 1.212905 -0.199455 8.175160 0.000000 0.000000 0.000000 2.099721 -1.233945 16.675565 -8.573124 2.865515 -22.025053 -6.235223 -0.360216 25.659471 4.488638 -0.613622 -23.168852 0.000000 0.000000 0.000000 -18.424372 -22.255952 9.621315 -44.597668 -29.988621 3.928738 11.915547 -15.438388 -0.951699 0.000000 0.000000 0.000000 26.410764 2.179938 1.443656 57.734331 10.262197 -3.403931 21.645861 41.714245 11.225599 0.000000 0.000000 0.000000 
0.006187 0.950530 0.003615 -2.074127 7.951538 2.506060 3.911732 -0.264773 -2.503447 -1.813823 0.260483 -6.460120 5.371374 14.452552 14.918958 0.000000 0.000000 0.000000 0.186375 0.844056 -8.465599 1.164431 -0.022616 5.843599 1.153791 -0.329224 8.218197 0.000000 0.000000 0.000000 2.783280 -1.401217 17.191943 -9.370516 3.035243 -22.349284 -6.676661 -1.887657 26.006725 3.429490 -0.349285 -21.868200 0.000000 0.000000 0.000000 -17.736538 -23.388364 10.570382 -42.598050 -35.113704 5.408144 14.162275 -10.742737 -0.802142 0.000000 0.000000 0.000000 25.563833 2.506329 1.149916 58.849841 8.244471 -4.316427 23.281214 40.234499 11.243350 0.000000 0.000000 0.000000 
0.008685 0.950265 0.004632 -2.133869 7.913762 2.298451 3.566161 -0.244752 -2.286052 -1.369618 0.243528 -6.284151 5.440028 14.495000 14.625169 0.000000 0.000000 0.000000 -0.165644 0.773348 -7.914442 1.630162 -0.109421 5.400220 1.216343 -0.211500 8.241009 0.000000 0.000000 0.000000 2.902245 -1.461567 17.641194 -9.977139 3.182076 -22.362242 -7.559086 -2.121269 26.278441 2.630895 0.010372 -20.833518 0.000000 0.000000 0.000000 -17.573814 -25.554340 11.745768 -39.226132 -39.238425 6.140651 15.828812 -7.761995 -0.649938 0.000000 0.000000 0.000000 26.232079 1.670908 0.517475 58.554955 6.744000 -5.062808 27.865382 41.138250 13.388775 0.000000 0.000000 0.000000 
0.010811 0.950566 0.005210 -2.562161 8.377970 1.975386 4.297374 -0.260862 -2.329941 -2.057627 0.259681 -5.715859 5.266415 14.213774 14.220390 0.000000 0.000000 0.000000 0.131054 0.781316 -7.819765 1.725211 -0.125837 5.904624 1.044032 -0.580637 8.406841 0.000000 0.000000 0.000000 2.533014 -1.494315 18.508693 -9.274940 2.994082 -22.789494 -8.128980 -2.691158 26.318099 2.704782 -0.182758 -19.883595 0.000000 0.000000 0.000000 -17.245037 -26.934704 12.472467 -35.249790 -43.642988 6.511918 17.158542 -6.090133 -0.547642 0.000000 0.000000 0.000000 25.167740 1.468218 0.308648 59.672693 5.656011 -5.606906 30.532369 40.940820 14.386434 0.000000 0.000000 0.000000 
0.012592 0.950758 0.005643 -2.570062 8.927006 1.954962 4.186982 -0.283987 -2.747780 -2.027774 0.249045 -5.006333 5.039520 13.880128 13.901962 0.000000 0.000000 0.000000 0.211990 0.743252 -7.371583 1.436213 -0.087108 5.311257 0.836673 -0.994759 8.527760 0.000000 0.000000 0.000000 2.747674 -1.581907 18.822813 -10.063371 3.165211 -23.004715 -8.195360 -3.478700 26.848255 2.531144 -0.124522 -20.349266 0.000000 0.000000 0.000000 -16.275281 -27.907687 12.898735 -32.495005 -45.163012 6.104079 18.302069 -8.213342 -0.868662 0.000000 0.000000 0.000000 25.215617 1.597627 0.210440 58.801909 4.797157 -5.988190 33.454818 40.963963 15.495003 0.000000 0.000000 0.000000 
0.014069 0.950665 0.006297 -2.704373 8.985549 1.893586 4.458055 -0.289018 -2.761912 -2.406975 0.263882 -4.815668 5.049224 13.858273 13.705101 0.000000 0.000000 0.000000 0.245407 0.728253 -7.189553 1.481156 -0.097209 5.176178 0.826459 -1.020261 8.563968 0.000000 0.000000 0.000000 2.479625 -1.576379 19.237368 -9.832508 3.123388 -22.881871 -8.316257 -3.313498 26.668513 2.565591 -0.213603 -19.291220 0.000000 0.000000 0.000000 -16.504898 -27.499837 12.684833 -31.948458 -44.774577 5.833630 19.452785 -12.257517 -1.493030 0.000000 0.000000 0.000000 25.188394 1.493092 0.213850 58.928505 4.571084 -6.106848 35.113062 41.468194 16.471746 0.000000 0.000000 0.000000 
0.015292 0.950439 0.007292 -2.591146 8.441725 1.959570 4.314232 -0.298647 -3.055981 -2.513045 0.268128 -4.103197 5.399160 14.289502 13.548506 0.000000 0.000000 0.000000 0.168139 0.715463 -7.087959 1.244421 -0.054662 4.965009 1.043008 -0.585391 8.445829 0.000000 0.000000 0.000000 2.302805 -1.530560 19.294967 -10.093996 3.189813 -22.741479 -8.028410 -2.632481 26.914316 2.206279 0.047290 -18.938365 0.000000 0.000000 0.000000 -17.017425 -26.726678 12.312571 -32.742201 -41.906371 5.242958 20.555361 -19.612336 -2.673533 0.000000 0.000000 0.000000 25.014562 0.947341 -0.001659 58.329517 4.509840 -6.142414 38.586396 42.215675 18.433025 0.000000 0.000000 0.000000 
0.016014 0.949951 0.008340 -2.575538 8.010770 1.704184 4.382783 -0.251670 -2.222306 -2.758946 0.287310 -4.826159 5.589474 14.521845 13.568945 0.000000 0.000000 0.000000 0.222351 0.712133 -7.019602 1.035836 -0.007959 5.426127 1.172201 -0.259087 8.148162 0.000000 0.000000 0.000000 2.198777 -1.520305 19.563520 -10.201950 3.266467 -22.100280 -8.257734 -2.084753 26.474546 2.582349 -0.207497 -18.277773 0.000000 0.000000 0.000000 -17.877113 -25.101074 11.526173 -35.170899 -36.402715 4.290180 22.671679 -30.221534 -4.787619 0.000000 0.000000 0.000000 26.270995 0.747937 -0.088336 56.762287 4.357488 -6.105851 40.534110 43.252452 19.831731 0.000000 0.000000 0.000000 
